<?xml version="1.0" encoding="UTF-8" standalone="no"?>
<svg width="54px" height="60px" viewBox="0 0 54 60" version="1.1" xmlns="http://www.w3.org/2000/svg" xmlns:xlink="http://www.w3.org/1999/xlink" xmlns:sketch="http://www.bohemiancoding.com/sketch/ns">
    <!-- Generator: Sketch 3.3.3 (12081) - http://www.bohemiancoding.com/sketch -->
    <title>1</title>
    <desc>Created with Sketch.</desc>
    <defs></defs>
    <g id="Page-4" stroke="none" stroke-width="1" fill="none" fill-rule="evenodd" sketch:type="MSPage">
        <g id="Desktop-HD-Copy-9" sketch:type="MSArtboardGroup" transform="translate(-225.000000, -567.000000)">
            <g id="Group" sketch:type="MSLayerGroup" transform="translate(183.000000, 568.000000)">
                <g id="1" transform="translate(43.000000, 0.000000)" sketch:type="MSShapeGroup">
                    <path d="M26,58 L0,45 L0,13 L26,26 L26,58 L26,58 Z" id="Path" stroke="#FFFFFF" stroke-width="2" stroke-linecap="round" stroke-linejoin="round"></path>
                    <path d="M26,58 L52,45 L52,13 L26,26 L26,58 L26,58 Z" id="Path" stroke="#FFFFFF" stroke-width="2" stroke-linecap="round" stroke-linejoin="round"></path>
                    <path d="M0,13 L25,0 L52,13 L26,26 L0,13 L0,13 Z" id="Path" stroke="#FFFFFF" stroke-width="2" stroke-linecap="round" stroke-linejoin="round"></path>
                    <path d="M9,11 C9,11.552 8.552,12 8,12 C7.448,12 7,11.552 7,11 C7,10.448 7.448,10 8,10 C8.552,10 9,10.448 9,11" id="Fill-175" fill="#FFFFFF"></path>
                    <path d="M21,11 C21,11.552 20.552,12 20,12 C19.448,12 19,11.552 19,11 C19,10.448 19.448,10 20,10 C20.552,10 21,10.448 21,11" id="Fill-176" fill="#FFFFFF"></path>
                    <path d="M21,5 C21,5.552 20.552,6 20,6 C19.448,6 19,5.552 19,5 C19,4.448 19.448,4 20,4 C20.552,4 21,4.448 21,5" id="Fill-177" fill="#FFFFFF"></path>
                    <path d="M12,8 C12,8.552 11.552,9 11,9 C10.448,9 10,8.552 10,8 C10,7.448 10.448,7 11,7 C11.552,7 12,7.448 12,8" id="Fill-178" fill="#FFFFFF"></path>
                    <path d="M15,11 C15,11.552 14.552,12 14,12 C13.448,12 13,11.552 13,11 C13,10.448 13.448,10 14,10 C14.552,10 15,10.448 15,11" id="Fill-179" fill="#FFFFFF"></path>
                    <path d="M18,8 C18,8.552 17.552,9 17,9 C16.448,9 16,8.552 16,8 C16,7.448 16.448,7 17,7 C17.552,7 18,7.448 18,8" id="Fill-180" fill="#FFFFFF"></path>
                    <path d="M24,2 C24,2.552 23.552,3 23,3 C22.448,3 22,2.552 22,2 C22,1.448 22.448,1 23,1 C23.552,1 24,1.448 24,2" id="Fill-181" fill="#FFFFFF"></path>
                    <path d="M27,5 C27,5.552 26.552,6 26,6 C25.448,6 25,5.552 25,5 C25,4.448 25.448,4 26,4 C26.552,4 27,4.448 27,5" id="Fill-182" fill="#FFFFFF"></path>
                    <path d="M33,5 C33,5.552 32.552,6 32,6 C31.448,6 31,5.552 31,5 C31,4.448 31.448,4 32,4 C32.552,4 33,4.448 33,5" id="Fill-183" fill="#FFFFFF"></path>
                    <path d="M30,2 C30,2.552 29.552,3 29,3 C28.448,3 28,2.552 28,2 C28,1.448 28.448,1 29,1 C29.552,1 30,1.448 30,2" id="Fill-184" fill="#FFFFFF"></path>
                    <path d="M24,8 C24,8.552 23.552,9 23,9 C22.448,9 22,8.552 22,8 C22,7.448 22.448,7 23,7 C23.552,7 24,7.448 24,8" id="Fill-185" fill="#FFFFFF"></path>
                    <path d="M27,11 C27,11.552 26.552,12 26,12 C25.448,12 25,11.552 25,11 C25,10.448 25.448,10 26,10 C26.552,10 27,10.448 27,11" id="Fill-186" fill="#FFFFFF"></path>
                    <path d="M33,11 C33,11.552 32.552,12 32,12 C31.448,12 31,11.552 31,11 C31,10.448 31.448,10 32,10 C32.552,10 33,10.448 33,11" id="Fill-187" fill="#FFFFFF"></path>
                    <path d="M45,11 C45,11.552 44.552,12 44,12 C43.448,12 43,11.552 43,11 C43,10.448 43.448,10 44,10 C44.552,10 45,10.448 45,11" id="Fill-188" fill="#FFFFFF"></path>
                    <path d="M30,8 C30,8.552 29.552,9 29,9 C28.448,9 28,8.552 28,8 C28,7.448 28.448,7 29,7 C29.552,7 30,7.448 30,8" id="Fill-189" fill="#FFFFFF"></path>
                    <path d="M36,8 C36,8.552 35.552,9 35,9 C34.448,9 34,8.552 34,8 C34,7.448 34.448,7 35,7 C35.552,7 36,7.448 36,8" id="Fill-190" fill="#FFFFFF"></path>
                    <path d="M39,11 C39,11.552 38.552,12 38,12 C37.448,12 37,11.552 37,11 C37,10.448 37.448,10 38,10 C38.552,10 39,10.448 39,11" id="Fill-191" fill="#FFFFFF"></path>
                    <path d="M42,8 C42,8.552 41.552,9 41,9 C40.448,9 40,8.552 40,8 C40,7.448 40.448,7 41,7 C41.552,7 42,7.448 42,8" id="Fill-192" fill="#FFFFFF"></path>
                    <path d="M6,14 C6,14.552 5.552,15 5,15 C4.448,15 4,14.552 4,14 C4,13.448 4.448,13 5,13 C5.552,13 6,13.448 6,14" id="Fill-193" fill="#FFFFFF"></path>
                    <path d="M12,14 C12,14.552 11.552,15 11,15 C10.448,15 10,14.552 10,14 C10,13.448 10.448,13 11,13 C11.552,13 12,13.448 12,14" id="Fill-194" fill="#FFFFFF"></path>
                    <path d="M15,17 C15,17.552 14.552,18 14,18 C13.448,18 13,17.552 13,17 C13,16.448 13.448,16 14,16 C14.552,16 15,16.448 15,17" id="Fill-195" fill="#FFFFFF"></path>
                    <path d="M21,17 C21,17.552 20.552,18 20,18 C19.448,18 19,17.552 19,17 C19,16.448 19.448,16 20,16 C20.552,16 21,16.448 21,17" id="Fill-196" fill="#FFFFFF"></path>
                    <path d="M18,14 C18,14.552 17.552,15 17,15 C16.448,15 16,14.552 16,14 C16,13.448 16.448,13 17,13 C17.552,13 18,13.448 18,14" id="Fill-197" fill="#FFFFFF"></path>
                    <path d="M18,20 C18,20.552 17.552,21 17,21 C16.448,21 16,20.552 16,20 C16,19.448 16.448,19 17,19 C17.552,19 18,19.448 18,20" id="Fill-198" fill="#FFFFFF"></path>
                    <path d="M24,14 C24,14.552 23.552,15 23,15 C22.448,15 22,14.552 22,14 C22,13.448 22.448,13 23,13 C23.552,13 24,13.448 24,14" id="Fill-199" fill="#FFFFFF"></path>
                    <path d="M27,17 C27,17.552 26.552,18 26,18 C25.448,18 25,17.552 25,17 C25,16.448 25.448,16 26,16 C26.552,16 27,16.448 27,17" id="Fill-200" fill="#FFFFFF"></path>
                    <path d="M33,17 C33,17.552 32.552,18 32,18 C31.448,18 31,17.552 31,17 C31,16.448 31.448,16 32,16 C32.552,16 33,16.448 33,17" id="Fill-201" fill="#FFFFFF"></path>
                    <path d="M30,14 C30,14.552 29.552,15 29,15 C28.448,15 28,14.552 28,14 C28,13.448 28.448,13 29,13 C29.552,13 30,13.448 30,14" id="Fill-202" fill="#FFFFFF"></path>
                    <path d="M24,20 C24,20.552 23.552,21 23,21 C22.448,21 22,20.552 22,20 C22,19.448 22.448,19 23,19 C23.552,19 24,19.448 24,20" id="Fill-203" fill="#FFFFFF"></path>
                    <path d="M27,23 C27,23.552 26.552,24 26,24 C25.448,24 25,23.552 25,23 C25,22.448 25.448,22 26,22 C26.552,22 27,22.448 27,23" id="Fill-204" fill="#FFFFFF"></path>
                    <path d="M30,20 C30,20.552 29.552,21 29,21 C28.448,21 28,20.552 28,20 C28,19.448 28.448,19 29,19 C29.552,19 30,19.448 30,20" id="Fill-205" fill="#FFFFFF"></path>
                    <path d="M36,14 C36,14.552 35.552,15 35,15 C34.448,15 34,14.552 34,14 C34,13.448 34.448,13 35,13 C35.552,13 36,13.448 36,14" id="Fill-206" fill="#FFFFFF"></path>
                    <path d="M39,17 C39,17.552 38.552,18 38,18 C37.448,18 37,17.552 37,17 C37,16.448 37.448,16 38,16 C38.552,16 39,16.448 39,17" id="Fill-207" fill="#FFFFFF"></path>
                    <path d="M42,14 C42,14.552 41.552,15 41,15 C40.448,15 40,14.552 40,14 C40,13.448 40.448,13 41,13 C41.552,13 42,13.448 42,14" id="Fill-208" fill="#FFFFFF"></path>
                    <path d="M36,20 C36,20.552 35.552,21 35,21 C34.448,21 34,20.552 34,20 C34,19.448 34.448,19 35,19 C35.552,19 36,19.448 36,20" id="Fill-209" fill="#FFFFFF"></path>
                    <path d="M48,14 C48,14.552 47.552,15 47,15 C46.448,15 46,14.552 46,14 C46,13.448 46.448,13 47,13 C47.552,13 48,13.448 48,14" id="Fill-210" fill="#FFFFFF"></path>
                </g>
            </g>
        </g>
    </g>
</svg>