<?xml version="1.0" encoding="UTF-8" standalone="no"?>
<svg width="48px" height="58px" viewBox="0 0 48 58" version="1.1" xmlns="http://www.w3.org/2000/svg" xmlns:xlink="http://www.w3.org/1999/xlink" xmlns:sketch="http://www.bohemiancoding.com/sketch/ns">
    <!-- Generator: Sketch 3.3.3 (12081) - http://www.bohemiancoding.com/sketch -->
    <title>2</title>
    <desc>Created with Sketch.</desc>
    <defs></defs>
    <g id="Page-4" stroke="none" stroke-width="1" fill="none" fill-rule="evenodd" sketch:type="MSPage">
        <g id="Desktop-HD-Copy-9" sketch:type="MSArtboardGroup" transform="translate(-470.000000, -568.000000)" stroke="#FFFFFF" stroke-width="2" stroke-linecap="round" stroke-linejoin="round">
            <g id="Group" sketch:type="MSLayerGroup" transform="translate(183.000000, 568.000000)">
                <g id="2" transform="translate(288.000000, 1.000000)" sketch:type="MSShapeGroup">
                    <path d="M46,33 C46,45.702 35.703,56 23,56 C10.297,56 0,45.702 0,33 C0,20.298 10.297,10 23,10 C35.703,10 46,20.298 46,33 L46,33 Z" id="Stroke-1143"></path>
                    <path d="M28,5 C28,7.761 25.761,10 23,10 C20.239,10 18,7.761 18,5 C18,2.239 20.239,0 23,0 C25.761,0 28,2.239 28,5 L28,5 Z" id="Stroke-1145"></path>
                    <path d="M21,5 L25,5" id="Stroke-1146"></path>
                    <path d="M23,5 L23,10 L23,5 Z M20.704,35.348 L20.704,35.348 C19.602,34.246 19.772,32.413 21.059,31.533 L33.98,21.757 C34.187,21.616 34.437,21.865 34.295,22.072 L24.52,34.994 C23.639,36.28 21.807,36.451 20.704,35.348 L20.704,35.348 Z" id="Stroke-1147"></path>
                </g>
            </g>
        </g>
    </g>
</svg>