<?xml version="1.0" encoding="UTF-8" standalone="no"?>
<svg width="60px" height="60px" viewBox="0 0 60 60" version="1.1" xmlns="http://www.w3.org/2000/svg" xmlns:xlink="http://www.w3.org/1999/xlink" xmlns:sketch="http://www.bohemiancoding.com/sketch/ns">
    <!-- Generator: Sketch 3.3.3 (12081) - http://www.bohemiancoding.com/sketch -->
    <title>3</title>
    <desc>Created with Sketch.</desc>
    <defs></defs>
    <g id="Page-4" stroke="none" stroke-width="1" fill="none" fill-rule="evenodd" sketch:type="MSPage">
        <g id="Desktop-HD-Copy-9" sketch:type="MSArtboardGroup" transform="translate(-710.000000, -567.000000)" stroke="#FFFFFF" stroke-width="2">
            <g id="Group" sketch:type="MSLayerGroup" transform="translate(183.000000, 568.000000)">
                <g id="3" transform="translate(528.000000, 0.000000)" sketch:type="MSShapeGroup">
                    <path d="M0,0 L58,0 L58,58 L0,58 L0,0 Z" id="Stroke-6224"></path>
                    <path d="M0,0 L58,0 L58,12 L0,12 L0,0 Z" id="Stroke-6242"></path>
                    <path d="M0,12 L7,12 L7,58 L0,58 L0,12 Z" id="Stroke-6356" stroke-linecap="round"></path>
                    <path d="M12,17 L25,17" id="Stroke-6386" stroke-linecap="round"></path>
                    <path d="M29,17 L39,17" id="Stroke-6388" stroke-linecap="round"></path>
                    <path d="M43,17 L45,17" id="Stroke-6390" stroke-linecap="round"></path>
                    <path d="M50,21 L35,21" id="Stroke-6392" stroke-linecap="round"></path>
                    <path d="M31,21 L17,21" id="Stroke-6394" stroke-linecap="round"></path>
                    <path d="M13,21 L12,21" id="Stroke-6396" stroke-linecap="round"></path>
                    <path d="M12,25 L21,25" id="Stroke-6398" stroke-linecap="round"></path>
                    <path d="M25,25 L27,25" id="Stroke-6400" stroke-linecap="round"></path>
                    <path d="M31,25 L45,25" id="Stroke-6402" stroke-linecap="round"></path>
                    <path d="M12,29 L25,29" id="Stroke-6404" stroke-linecap="round"></path>
                    <path d="M29,29 L39,29" id="Stroke-6406" stroke-linecap="round"></path>
                    <path d="M43,33 L35,33" id="Stroke-6408" stroke-linecap="round"></path>
                    <path d="M31,33 L17,33" id="Stroke-6410" stroke-linecap="round"></path>
                    <path d="M13,33 L12,33" id="Stroke-6412" stroke-linecap="round"></path>
                    <path d="M12,37 L21,37" id="Stroke-6414" stroke-linecap="round"></path>
                    <path d="M25,37 L27,37" id="Stroke-6416" stroke-linecap="round"></path>
                    <path d="M31,37 L46,37" id="Stroke-6418" stroke-linecap="round"></path>
                    <path d="M12,41 L25,41" id="Stroke-6420" stroke-linecap="round"></path>
                    <path d="M29,41 L39,41" id="Stroke-6422" stroke-linecap="round"></path>
                    <path d="M43,41 L50,41" id="Stroke-6424" stroke-linecap="round"></path>
                    <path d="M39,45 L35,45" id="Stroke-6426" stroke-linecap="round"></path>
                    <path d="M31,45 L17,45" id="Stroke-6428" stroke-linecap="round"></path>
                    <path d="M13,45 L12,45" id="Stroke-6430" stroke-linecap="round"></path>
                    <path d="M12,49 L21,49" id="Stroke-6432" stroke-linecap="round"></path>
                    <path d="M25,49 L27,49" id="Stroke-6434" stroke-linecap="round"></path>
                    <path d="M31,49 L38,49" id="Stroke-6436" stroke-linecap="round"></path>
                    <path d="M42,49 L43,49" id="Stroke-6438" stroke-linecap="round"></path>
                </g>
            </g>
        </g>
    </g>
</svg>