<?xml version="1.0" encoding="UTF-8" standalone="no"?>
<svg width="57px" height="57px" viewBox="0 0 57 57" version="1.1" xmlns="http://www.w3.org/2000/svg" xmlns:xlink="http://www.w3.org/1999/xlink" xmlns:sketch="http://www.bohemiancoding.com/sketch/ns">
    <!-- Generator: Sketch 3.3.3 (12081) - http://www.bohemiancoding.com/sketch -->
    <title>4</title>
    <desc>Created with Sketch.</desc>
    <defs></defs>
    <g id="Page-4" stroke="none" stroke-width="1" fill="none" fill-rule="evenodd" sketch:type="MSPage">
        <g id="Desktop-HD-Copy-9" sketch:type="MSArtboardGroup" transform="translate(-956.000000, -569.000000)" stroke="#FFFFFF" stroke-width="2">
            <g id="Group" sketch:type="MSLayerGroup" transform="translate(183.000000, 568.000000)">
                <g id="4" transform="translate(774.000000, 2.000000)" sketch:type="MSShapeGroup">
                    <path d="M40.029,20 C40.029,31.046 31.075,40 20.029,40 C8.984,40 0.029,31.046 0.029,20 C0.029,8.954 8.984,0 20.029,0 C31.075,0 40.029,8.954 40.029,20 L40.029,20 Z" id="Stroke-4567"></path>
                    <path d="M53.828,47.385 L43.343,36.899 L41.929,38.314 L35.746,32.343 C34.919,33.394 33.994,34.362 32.976,35.229 L39.101,41.142 L37.686,42.557 L48.172,53.042 C49.734,54.604 52.266,54.604 53.828,53.042 C55.391,51.479 55.391,48.947 53.828,47.385 L53.828,47.385 Z" id="Stroke-4569" stroke-linecap="round"></path>
                </g>
            </g>
        </g>
    </g>
</svg>