<?xml version="1.0" encoding="UTF-8" standalone="no"?>
<svg width="60px" height="54px" viewBox="0 0 60 54" version="1.1" xmlns="http://www.w3.org/2000/svg" xmlns:xlink="http://www.w3.org/1999/xlink" xmlns:sketch="http://www.bohemiancoding.com/sketch/ns">
    <!-- Generator: Sketch 3.3.3 (12081) - http://www.bohemiancoding.com/sketch -->
    <title>5</title>
    <desc>Created with Sketch.</desc>
    <defs></defs>
    <g id="Page-4" stroke="none" stroke-width="1" fill="none" fill-rule="evenodd" sketch:type="MSPage">
        <g id="Desktop-HD-Copy-9" sketch:type="MSArtboardGroup" transform="translate(-1168.000000, -570.000000)" stroke="#FFFFFF" stroke-width="2" stroke-linecap="round" stroke-linejoin="round">
            <g id="Group" sketch:type="MSLayerGroup" transform="translate(183.000000, 568.000000)">
                <g id="5" transform="translate(986.000000, 3.000000)" sketch:type="MSShapeGroup">
                    <path d="M53,30 C53,34.971 48.97,39 44,39 C39.029,39 35,34.971 35,30 C35,25.029 39.029,21 44,21 C48.97,21 53,25.029 53,30 L53,30 Z M44,39 C41.692,39 39.593,38.124 38,36.695 L38,52 L44,46 L50,52 L50,36.695 C48.407,38.124 46.308,39 44,39 L44,39 Z" id="Stroke-26"></path>
                    <path d="M0,0 L0,44 L38,44 L38,36.695 C39.593,38.124 41.692,39 44,39 C46.308,39 48.407,38.124 50,36.695 L50,44 L58,44 L58,0 L0,0 L0,0 Z" id="Stroke-36"></path>
                    <path d="M11,21.222 C11,23.431 12.791,25.222 15,25.222 C16.225,25.222 17.321,24.671 18.055,23.804 C18.986,22.703 18.753,21.03 17.615,20.145 L12.385,16.077 C11.247,15.192 11.013,13.519 11.945,12.418 C12.679,11.551 13.775,11 15,11 C17.209,11 19,12.791 19,15 M15,9 L15,27 M24,13 L47,13 M24,19 L35,19 M24,25 L32,25" id="Stroke-37"></path>
                </g>
            </g>
        </g>
    </g>
</svg>