<?xml version="1.0" encoding="UTF-8" standalone="no"?>
<svg width="1440px" height="467px" viewBox="0 0 1440 467" version="1.1" xmlns="http://www.w3.org/2000/svg" xmlns:xlink="http://www.w3.org/1999/xlink" xmlns:sketch="http://www.bohemiancoding.com/sketch/ns">
    <!-- Generator: Sketch 3.3.3 (12081) - http://www.bohemiancoding.com/sketch -->
    <title>charts</title>
    <desc>Created with Sketch.</desc>
    <defs>
        <rect id="path-1" x="0" y="0" width="1637" height="553"></rect>
    </defs>
    <g id="Page-4" stroke="none" stroke-width="1" fill="none" fill-rule="evenodd" sketch:type="MSPage">
        <g id="Desktop-HD-Copy-9" sketch:type="MSArtboardGroup" transform="translate(0.000000, -115.000000)">
            <g id="charts" sketch:type="MSLayerGroup" transform="translate(0.000000, 56.000000)">
                <mask id="mask-2" sketch:name="mask" fill="white">
                    <use xlink:href="#path-1"></use>
                </mask>
                <g id="mask"></g>
                <path d="M494.409301,232 C460.709488,232 427.009675,255.400857 401.445663,302.212429 C368.823373,361.927 313.009602,394.504857 255.841512,394.504857 C223.377392,394.504857 190.498078,384.016857 161.157789,362.035429 C131.491277,339.797714 99.2841807,329.181571 68.3523193,329.181571 C14.8122229,329.181571 -34.9120542,361.010286 -61,419.542 L-61,702.412429 L1568.89854,702.412429 C1568.89854,702.412429 1535.20861,626.857429 1494.03533,534.515714 C1467.93749,475.984 1418.21322,444.155286 1364.66323,444.155286 C1333.73137,444.155286 1301.52428,454.771429 1271.85777,476.999286 C1242.19125,499.237 1209.98416,509.853143 1179.0523,509.853143 C1125.50231,509.853143 1075.78792,478.024429 1049.69009,419.492714 C1023.60214,360.970857 973.887753,329.142143 920.347657,329.142143 C889.415795,329.142143 857.218584,339.758286 827.552072,361.996 C798.221669,383.977429 765.322584,394.475286 732.88812,394.475286 C675.72003,394.475286 619.945801,361.907286 587.343283,302.202571 C561.789157,255.400857 528.099229,232 494.409301,232" id="overdue" stroke="#BA77FF" stroke-width="2" opacity="0.285214552" sketch:type="MSShapeGroup" mask="url(#mask-2)"></path>
                <path d="M-21,744 L1933,744 L1933,74.0689736 C1887.09261,176.997338 1799.62737,232.974367 1705.44011,232.974367 C1651.02147,232.974367 1594.37863,214.302219 1542.18418,175.19417 C1490.58285,136.539377 1432.71424,118.07415 1375.63644,118.07415 C1275.07316,118.064297 1176.93178,175.341971 1119.5772,280.359251 C1074.62869,362.654647 1015.35636,403.812198 956.084025,403.812198 C896.811693,403.812198 837.529476,362.654647 792.551306,280.329691 C735.167069,175.322264 636.966378,118.024883 536.393212,118.01503 C479.295649,118.01503 421.446802,136.470403 369.835587,175.13505 C317.641139,214.233246 260.97853,232.905393 206.569771,232.905393 C112.372632,232.905393 24.9073897,176.938218 -21,74 L-21,744 Z" id="snoozed" stroke="#FCAB53" stroke-width="2" opacity="0.285214552" sketch:type="MSShapeGroup" mask="url(#mask-2)"></path>
                <path d="M1044.2059,136.133208 C1008.82357,200.900604 948.28815,236.219321 886.26035,236.219321 C851.046033,236.219321 815.347433,224.833811 783.5231,200.989245 C751.3232,176.868906 716.385617,165.355358 682.811933,165.355358 C624.7177,165.355358 570.764583,199.876302 542.448833,263.353472 C514.133083,326.830642 460.179967,361.351585 402.065967,361.351585 C368.502167,361.351585 333.544817,349.828189 301.3548,325.727547 C269.164783,301.617057 234.207433,290.09366 200.643633,290.09366 C142.529633,290.09366 88.5666333,324.614604 60.241,388.091774 C15.55845,488.24683 -21,570.190981 -21,570.190981 L1747.79052,570.190981 L1747.79052,263.402717 C1719.47477,199.915698 1665.52165,165.394755 1607.41753,165.394755 C1573.84385,165.394755 1538.89638,176.918151 1506.69648,201.028642 C1474.86227,224.873208 1439.17355,236.248868 1403.95923,236.248868 C1341.91167,236.248868 1281.33672,200.910453 1245.9445,136.152906 C1218.1921,85.3810189 1181.62377,60 1145.05543,60 C1108.49698,60 1071.92865,85.3810189 1044.2059,136.133208 Z" id="completed" stroke="#50D2C2" stroke-width="2" opacity="0.285214552" sketch:type="MSShapeGroup" mask="url(#mask-2)"></path>
            </g>
        </g>
    </g>
</svg>