<?xml version="1.0" encoding="UTF-8" standalone="no"?>
<svg width="116px" height="34px" viewBox="0 0 116 34" version="1.1" xmlns="http://www.w3.org/2000/svg" xmlns:xlink="http://www.w3.org/1999/xlink" xmlns:sketch="http://www.bohemiancoding.com/sketch/ns">
    <!-- Generator: Sketch 3.3.3 (12081) - http://www.bohemiancoding.com/sketch -->
    <title>logo-white</title>
    <desc>Created with Sketch.</desc>
    <defs></defs>
    <g id="Page-4" stroke="none" stroke-width="1" fill="none" fill-rule="evenodd" sketch:type="MSPage">
        <g id="Desktop-HD-Copy-10" sketch:type="MSArtboardGroup" transform="translate(-153.000000, -20.000000)">
            <g id="logo-white" sketch:type="MSLayerGroup" transform="translate(152.000000, 18.000000)">
                <g id="Group-Copy-4" transform="translate(27.600752, 6.724698) rotate(-315.000000) translate(-27.600752, -6.724698) translate(22.600752, 3.724698)" sketch:type="MSShapeGroup">
                    <rect id="Rectangle-1" fill="#FFFFFF" x="4.20975656" y="0.0406698565" width="1.28256513" height="5.85645933" rx="0.960000052"></rect>
                    <ellipse id="Oval-2" stroke="#FFFFFF" stroke-width="1.20000002" cx="7.38311459" cy="2.97689885" rx="2.45325487" ry="1.90348392"></ellipse>
                    <ellipse id="Oval-2-Copy" stroke="#FFFFFF" stroke-width="1.20000002" cx="2.47660485" cy="2.97689885" rx="2.45325487" ry="1.90348392"></ellipse>
                </g>
                <g id="Group-Copy-3" transform="translate(6.642730, 6.625505) rotate(-45.000000) translate(-6.642730, -6.625505) translate(1.642730, 3.625505)" sketch:type="MSShapeGroup">
                    <rect id="Rectangle-1" fill="#FFFFFF" x="4.20975656" y="0.0406698565" width="1.28256513" height="5.85645933" rx="0.960000052"></rect>
                    <ellipse id="Oval-2" stroke="#FFFFFF" stroke-width="1.20000002" cx="7.38311459" cy="2.97689885" rx="2.45325487" ry="1.90348392"></ellipse>
                    <ellipse id="Oval-2-Copy" stroke="#FFFFFF" stroke-width="1.20000002" cx="2.47660485" cy="2.97689885" rx="2.45325487" ry="1.90348392"></ellipse>
                </g>
                <g id="Group-Copy" transform="translate(1.442886, 30.062201)" sketch:type="MSShapeGroup">
                    <rect id="Rectangle-1" fill="#FFFFFF" x="4.20975656" y="0.0406698565" width="1.28256513" height="5.85645933" rx="0.960000052"></rect>
                    <ellipse id="Oval-2" stroke="#FFFFFF" stroke-width="1.20000002" cx="7.38311459" cy="2.97689885" rx="2.45325487" ry="1.90348392"></ellipse>
                    <ellipse id="Oval-2-Copy" stroke="#FFFFFF" stroke-width="1.20000002" cx="2.47660485" cy="2.97689885" rx="2.45325487" ry="1.90348392"></ellipse>
                </g>
                <g id="Group-Copy-2" transform="translate(6.290581, 8.889952)" fill="#FFFFFF" sketch:type="MSShapeGroup">
                    <path d="M1.28000002,10.0861244 L1.28000002,10.0861244 C1.28000002,10.4619989 1.57655365,10.7582775 1.94876839,10.7582775 L19.3738769,10.7582775 C19.7409979,10.7582775 20.0426453,10.4564412 20.0426453,10.0861244 C20.0426453,9.71024991 19.7460916,9.41397131 19.3738769,9.41397131 L1.94876839,9.41397131 C1.58164742,9.41397131 1.28000002,9.71580756 1.28000002,10.0861244 L1.28000002,10.0861244 Z M0,10.0861244 C0,9.00798001 0.875625192,8.13397129 1.94876839,8.13397129 L19.3738769,8.13397129 C20.450152,8.13397129 21.3226453,9.00046339 21.3226453,10.0861244 C21.3226453,11.1642688 20.4470201,12.0382775 19.3738769,12.0382775 L1.94876839,12.0382775 C0.872493328,12.0382775 0,11.1717854 0,10.0861244 L0,10.0861244 Z" id="Shape"></path>
                    <path d="M5.36817637,4.63636364 L5.36817637,4.63636364 C5.36817637,5.01147721 5.66628025,5.30851673 6.04211382,5.30851673 L15.2805315,5.30851673 C15.6484739,5.30851673 15.9544689,5.00368164 15.9544689,4.63636364 C15.9544689,4.26125006 15.656365,3.96421055 15.2805315,3.96421055 L6.04211382,3.96421055 C5.67417143,3.96421055 5.36817637,4.26904563 5.36817637,4.63636364 L5.36817637,4.63636364 Z M4.08817635,4.63636364 C4.08817635,3.55821924 4.97115496,2.68421053 6.04211382,2.68421053 L15.2805315,2.68421053 C16.3596613,2.68421053 17.2344689,3.55070262 17.2344689,4.63636364 C17.2344689,5.71450803 16.3514903,6.58851675 15.2805315,6.58851675 L6.04211382,6.58851675 C4.96298395,6.58851675 4.08817635,5.72202465 4.08817635,4.63636364 L4.08817635,4.63636364 Z" id="Shape"></path>
                    <path d="M3.60464932,7.48325359 L3.60464932,7.48325359 C3.60464932,7.85964202 3.90015806,8.15540668 4.26992564,8.15540668 L17.0527197,8.15540668 C17.4180089,8.15540668 17.717996,7.85457557 17.717996,7.48325359 C17.717996,7.10686516 17.4224872,6.8111005 17.0527197,6.8111005 L4.26992564,6.8111005 C3.90463637,6.8111005 3.60464932,7.1119316 3.60464932,7.48325359 L3.60464932,7.48325359 Z M2.3246493,7.48325359 C2.3246493,6.4051092 3.19760533,5.53110048 4.26992564,5.53110048 L17.0527197,5.53110048 C18.1270661,5.53110048 18.997996,6.39759257 18.997996,7.48325359 C18.997996,8.56139798 18.12504,9.4354067 17.0527197,9.4354067 L4.26992564,9.4354067 C3.19557918,9.4354067 2.3246493,8.56891461 2.3246493,7.48325359 L2.3246493,7.48325359 Z" id="Shape"></path>
                    <path d="M3.60464932,12.7703349 L3.60464932,12.7703349 C3.60464932,13.1467234 3.90015806,13.442488 4.26992564,13.442488 L17.0527197,13.442488 C17.4180089,13.442488 17.717996,13.1416569 17.717996,12.7703349 C17.717996,12.3939465 17.4224872,12.0981818 17.0527197,12.0981818 L4.26992564,12.0981818 C3.90463637,12.0981818 3.60464932,12.3990129 3.60464932,12.7703349 L3.60464932,12.7703349 Z M2.3246493,12.7703349 C2.3246493,11.6921905 3.19760533,10.8181818 4.26992564,10.8181818 L17.0527197,10.8181818 C18.1270661,10.8181818 18.997996,11.6846739 18.997996,12.7703349 C18.997996,13.8484793 18.12504,14.722488 17.0527197,14.722488 L4.26992564,14.722488 C3.19557918,14.722488 2.3246493,13.8559959 2.3246493,12.7703349 L2.3246493,12.7703349 Z" id="Shape"></path>
                    <path d="M5.36817637,15.4545455 L5.36817637,15.4545455 C5.36817637,15.829659 5.66628025,16.1266985 6.04211382,16.1266985 L15.2805315,16.1266985 C15.6484739,16.1266985 15.9544689,15.8218635 15.9544689,15.4545455 C15.9544689,15.0794319 15.656365,14.7823924 15.2805315,14.7823924 L6.04211382,14.7823924 C5.67417143,14.7823924 5.36817637,15.0872274 5.36817637,15.4545455 L5.36817637,15.4545455 Z M4.08817635,15.4545455 C4.08817635,14.3764011 4.97115496,13.5023923 6.04211382,13.5023923 L15.2805315,13.5023923 C16.3596613,13.5023923 17.2344689,14.3688844 17.2344689,15.4545455 C17.2344689,16.5326898 16.3514903,17.4066986 15.2805315,17.4066986 L6.04211382,17.4066986 C4.96298395,17.4066986 4.08817635,16.5402065 4.08817635,15.4545455 L4.08817635,15.4545455 Z" id="Shape"></path>
                    <path d="M7.93330663,1.95215311 L7.93330663,1.95215311 C7.93330663,2.32639428 8.23319263,2.6243062 8.61316895,2.6243062 L12.7896367,2.6243062 C13.1723458,2.6243062 13.469499,2.32716717 13.469499,1.95215311 C13.469499,1.57791194 13.169613,1.28000002 12.7896367,1.28000002 L8.61316895,1.28000002 C8.23045985,1.28000002 7.93330663,1.57713905 7.93330663,1.95215311 L7.93330663,1.95215311 Z M6.65330661,1.95215311 C6.65330661,0.874008718 7.51974102,0 8.61316895,0 L12.7896367,0 C13.8720387,0 14.749499,0.866492093 14.749499,1.95215311 C14.749499,3.0302975 13.8830646,3.90430622 12.7896367,3.90430622 L8.61316895,3.90430622 C7.53076687,3.90430622 6.65330661,3.03781413 6.65330661,1.95215311 L6.65330661,1.95215311 Z" id="Shape"></path>
                    <path d="M7.93330663,18.0574163 L7.93330663,18.0574163 C7.93330663,18.4316574 8.23319263,18.7295694 8.61316895,18.7295694 L12.7896367,18.7295694 C13.1723458,18.7295694 13.469499,18.4324303 13.469499,18.0574163 C13.469499,17.6831751 13.169613,17.3852632 12.7896367,17.3852632 L8.61316895,17.3852632 C8.23045985,17.3852632 7.93330663,17.6824022 7.93330663,18.0574163 L7.93330663,18.0574163 Z M6.65330661,18.0574163 C6.65330661,16.9792719 7.51974102,16.1052632 8.61316895,16.1052632 L12.7896367,16.1052632 C13.8720387,16.1052632 14.749499,16.9717553 14.749499,18.0574163 C14.749499,19.1355607 13.8830646,20.0095694 12.7896367,20.0095694 L8.61316895,20.0095694 C7.53076687,20.0095694 6.65330661,19.1430773 6.65330661,18.0574163 L6.65330661,18.0574163 Z" id="Shape"></path>
                </g>
                <path d="M41.2031315,11.125 C41.2031315,10.513587 40.7189267,10 40.0894606,10 C39.4842047,10 39,10.513587 39,11.125 L39,26.7527174 C39,27.3641304 39.4842047,27.8777174 40.0894606,27.8777174 C40.7189267,27.8777174 41.2031315,27.3641304 41.2031315,26.7527174 L41.2031315,25.9945652 C41.9536488,27.2907609 43.5757346,28 45.1493999,28 C48.2483101,28 50.8872258,25.6521739 50.8872258,22.0326087 C50.8872258,18.388587 48.2967306,16.0896739 45.1736101,16.0896739 C43.5273141,16.0896739 41.9536488,16.75 41.2031315,18.0461957 L41.2031315,11.125 Z M41.2273417,22.0081522 C41.2273417,19.5625 43.1641606,18.2663043 44.9799283,18.2663043 C47.0135881,18.2663043 48.6356739,19.7336957 48.6356739,22.0081522 C48.6356739,24.2581522 47.0135881,25.8233696 44.9799283,25.8233696 C42.9704787,25.8233696 41.2273417,24.4293478 41.2273417,22.0081522 L41.2273417,22.0081522 Z M54.3726031,21.1521739 C54.6389157,19.2445652 56.0915299,18.0951087 57.955718,18.0951087 C59.7714857,18.0951087 61.1272589,19.2445652 61.3935715,21.1521739 L54.3726031,21.1521739 Z M63.5724927,22.0081522 C63.5724927,18.388587 61.1756794,16.0896739 57.955718,16.0896739 C54.7357566,16.0896739 52.1694717,18.388587 52.1694717,22.0081522 C52.1694717,25.6277174 54.7357566,28 57.955718,28 C59.7956959,28 61.4904124,27.3152174 62.5798731,25.8967391 C62.9188164,25.5054348 62.8219754,24.8451087 62.3861912,24.5027174 C61.9504069,24.1847826 61.3209408,24.3315217 60.9093668,24.7961957 C60.1346392,25.6521739 59.3841219,25.9945652 58.0283487,25.9945652 C56.1157401,25.9945652 54.6389157,24.7961957 54.3726031,22.888587 L62.7009242,22.888587 C63.1609187,22.888587 63.5724927,22.5217391 63.5724927,22.0081522 L63.5724927,22.0081522 Z M66.8157677,21.1521739 C67.0820803,19.2445652 68.5346944,18.0951087 70.3988826,18.0951087 C72.2146503,18.0951087 73.5704235,19.2445652 73.8367361,21.1521739 L66.8157677,21.1521739 Z M76.0156573,22.0081522 C76.0156573,18.388587 73.618844,16.0896739 70.3988826,16.0896739 C67.1789212,16.0896739 64.6126362,18.388587 64.6126362,22.0081522 C64.6126362,25.6277174 67.1789212,28 70.3988826,28 C72.2388605,28 73.933577,27.3152174 75.0230376,25.8967391 C75.3619809,25.5054348 75.26514,24.8451087 74.8293557,24.5027174 C74.3935715,24.1847826 73.7641054,24.3315217 73.3525314,24.7961957 C72.5778038,25.6521739 71.8272865,25.9945652 70.4715133,25.9945652 C68.5589047,25.9945652 67.0820803,24.7961957 66.8157677,22.888587 L75.1440888,22.888587 C75.6040833,22.888587 76.0156573,22.5217391 76.0156573,22.0081522 L76.0156573,22.0081522 Z M88.2409298,21.1521739 C88.26514,17.9483696 86.4977928,16.0896739 83.6651952,16.0896739 C82.4304732,16.0896739 80.6147055,16.6766304 79.9368189,18.0461957 L79.9368189,11.125 C79.9368189,10.513587 79.4526141,10 78.823148,10 C78.2178921,10 77.7336874,10.513587 77.7336874,11.125 L77.7336874,26.7527174 C77.7336874,27.3641304 78.2178921,27.8777174 78.823148,27.8777174 C79.4526141,27.8777174 79.9368189,27.3641304 79.9368189,26.7527174 L79.9368189,21.5923913 C79.9368189,19.1467391 81.8252173,18.2663043 83.3746724,18.2663043 C84.9241274,18.2663043 86.0377983,19.4157609 86.0377983,21.298913 L86.0377983,26.7527174 C86.0377983,27.3641304 86.522003,27.8777174 87.1272589,27.8777174 C87.756725,27.8777174 88.2409298,27.3641304 88.2409298,26.7527174 L88.2409298,21.1521739 Z M90.2979032,12.1521739 C90.2979032,11.3206522 91,10.7092391 91.823148,10.7092391 C92.6705063,10.7092391 93.3483929,11.3206522 93.3483929,12.1521739 C93.3483929,12.9836957 92.6705063,13.5951087 91.823148,13.5951087 C91,13.5951087 90.2979032,12.9836957 90.2979032,12.1521739 L90.2979032,12.1521739 Z M92.9368189,26.7527174 C92.9368189,27.3641304 92.4526141,27.8777174 91.823148,27.8777174 C91.2178921,27.8777174 90.7336874,27.3641304 90.7336874,26.7527174 L90.7336874,17.3369565 C90.7336874,16.7255435 91.2178921,16.2119565 91.823148,16.2119565 C92.4526141,16.2119565 92.9368189,16.7255435 92.9368189,17.3369565 L92.9368189,26.7527174 Z M104.919989,17.6548913 C105.113671,17.1168478 104.847358,16.4076087 104.242102,16.2608696 C103.661057,16.0896739 103.128432,16.3831522 102.886329,16.9945652 L99.7389985,25.138587 L96.5674576,16.9945652 C96.3253552,16.3831522 95.7927301,16.0896739 95.2116844,16.2608696 C94.6064285,16.4076087 94.3159057,17.1168478 94.5095876,17.6548913 L98.2863843,26.826087 C98.5769072,27.486413 99.0369017,27.8777174 99.690578,27.8777174 L99.8116292,27.8777174 C100.465306,27.8777174 100.90109,27.486413 101.167402,26.826087 L104.919989,17.6548913 Z M107.80011,21.1521739 C108.066423,19.2445652 109.519037,18.0951087 111.383225,18.0951087 C113.198993,18.0951087 114.554766,19.2445652 114.821079,21.1521739 L107.80011,21.1521739 Z M117,22.0081522 C117,18.388587 114.603187,16.0896739 111.383225,16.0896739 C108.163264,16.0896739 105.596979,18.388587 105.596979,22.0081522 C105.596979,25.6277174 108.163264,28 111.383225,28 C113.223203,28 114.91792,27.3152174 116.00738,25.8967391 C116.346324,25.5054348 116.249483,24.8451087 115.813698,24.5027174 C115.377914,24.1847826 114.748448,24.3315217 114.336874,24.7961957 C113.562147,25.6521739 112.811629,25.9945652 111.455856,25.9945652 C109.543247,25.9945652 108.066423,24.7961957 107.80011,22.888587 L116.128432,22.888587 C116.588426,22.888587 117,22.5217391 117,22.0081522 L117,22.0081522 Z" id="Honeycomb-Copy" fill="#FFFFFF" sketch:type="MSShapeGroup"></path>
            </g>
        </g>
    </g>
</svg>